<?xml version="1.0" encoding="UTF-8" standalone="no"?>
<!-- Created with Inkscape (http://www.inkscape.org/) -->

<svg
   width="512"
   height="512"
   viewBox="0 0 512 512"
   version="1.1"
   id="svg5"
   xmlns="http://www.w3.org/2000/svg"
   xmlns:svg="http://www.w3.org/2000/svg">
  <defs
     id="defs2" />
  <g
     id="layer1">
    <text
       xml:space="preserve"
       style="font-style:normal;font-variant:normal;font-weight:600;font-stretch:normal;font-size:53.3333px;line-height:1.25;font-family:'Source Code Pro';-inkscape-font-specification:'Source Code Pro Semi-Bold';fill:#ff9a00;fill-opacity:1"
       x="19.431677"
       y="65.397514"
       id="text7117"><tspan
         x="19.431677"
         y="65.397514"
         id="tspan10155" /></text>
    <g
       aria-label="lora 04
drop 05
ok   06
lora 07
ok   08
ok   09"
       id="text20670"
       style="font-weight:900;font-size:64px;line-height:1.25;font-family:'Source Code Pro';-inkscape-font-specification:'Source Code Pro Heavy'">
      <path
         d="m 43.648224,58.625143 q -6.4,0 -9.664,-3.84 -3.2,-3.904 -3.2,-10.112 v -22.784 h -9.6 v -8.576 h 20.608 v 31.744 q 0,2.752 1.536,3.776 1.6,0.96 3.264,0.96 1.984,0 4.608,-0.896 l 2.368,8.064 q -2.56,0.768 -4.672,1.216 -2.112,0.448 -5.248,0.448 z"
         style="fill:#fb5510"
         id="path6977" />
      <path
         d="m 76.224126,58.625143 q -4.224,0 -8,-1.984 -3.776,-1.984 -6.144,-5.696 -2.368,-3.776 -2.368,-9.088 0,-5.312 2.368,-9.024 2.368,-3.776 6.144,-5.76 3.776,-1.984 8,-1.984 4.224,0 8,1.984 3.776,1.984 6.144,5.76 2.368,3.712 2.368,9.024 0,5.312 -2.368,9.088 -2.368,3.712 -6.144,5.696 -3.776,1.984 -8,1.984 z m 0,-8.832 q 2.816,0 4.032,-2.112 1.216,-2.176 1.216,-5.824 0,-3.648 -1.216,-5.76 -1.216,-2.176 -4.032,-2.176 -2.752,0 -4.032,2.176 -1.216,2.112 -1.216,5.76 0,3.648 1.216,5.824 1.28,2.112 4.032,2.112 z"
         style="fill:#fb5510"
         id="path6979" />
      <path
         d="m 102.08003,57.857143 v -32 h 9.024 l 0.832,6.784 h 0.256 q 2.304,-3.968 5.568,-5.76 3.328,-1.792 6.912,-1.792 2.24,0 3.456,0.384 1.28,0.32 2.624,0.896 l -2.176,9.216 q -1.408,-0.448 -2.624,-0.64 -1.216,-0.256 -2.944,-0.256 -2.752,0 -5.44,1.664 -2.688,1.6 -4.48,5.632 v 15.872 z"
         style="fill:#fb5510"
         id="path6981" />
      <path
         d="m 147.64793,58.625143 q -3.328,0 -5.632,-1.344 -2.304,-1.408 -3.52,-3.648 -1.216,-2.24 -1.216,-4.864 0,-5.376 4.608,-8.192 4.672,-2.88 15.616,-3.456 -0.256,-1.728 -1.856,-2.496 -1.6,-0.832 -4.288,-0.832 -1.984,0 -4.16,0.704 -2.176,0.64 -5.056,1.984 l -3.84,-7.168 q 3.648,-2.048 7.424,-3.136 3.776,-1.088 7.808,-1.088 6.848,0 10.88,3.584 4.096,3.52 4.096,11.392 v 17.792 h -8.96 l -0.768,-3.328 h -0.256 q -2.368,1.728 -5.12,2.944 -2.752,1.152 -5.76,1.152 z m 3.584,-8.448 q 1.92,0 3.456,-0.704 1.536,-0.768 2.816,-1.728 v -4.096 q -3.904,0.128 -6.016,0.704 -2.112,0.576 -2.944,1.536 -0.768,0.896 -0.768,1.984 0,2.304 3.456,2.304 z"
         style="fill:#fb5510"
         id="path6983" />
      <path
         d="m 229.82374,58.625143 q -4.736,0 -8.384,-2.432 -3.584,-2.432 -5.632,-7.168 -1.984,-4.736 -1.984,-11.648 0,-10.432 4.416,-15.616 4.416,-5.248 11.584,-5.248 7.168,0 11.584,5.248 4.416,5.184 4.416,15.616 0,6.912 -2.048,11.648 -1.984,4.736 -5.568,7.168 -3.584,2.432 -8.384,2.432 z m 0,-8.448 q 1.728,0 3.136,-1.088 1.408,-1.088 2.24,-3.84 0.896,-2.816 0.896,-7.872 0,-5.056 -0.896,-7.744 -0.832,-2.688 -2.24,-3.648 -1.408,-1.024 -3.136,-1.024 -1.664,0 -3.136,1.024 -1.408,0.96 -2.304,3.648 -0.832,2.688 -0.832,7.744 0,5.056 0.832,7.872 0.896,2.752 2.304,3.84 1.472,1.088 3.136,1.088 z m 0,-7.68 q -2.176,0 -3.648,-1.408 -1.472,-1.408 -1.472,-3.712 0,-2.304 1.472,-3.712 1.472,-1.408 3.648,-1.408 2.24,0 3.648,1.408 1.472,1.408 1.472,3.712 0,2.304 -1.472,3.712 -1.408,1.408 -3.648,1.408 z"
         style="fill:#fb5510"
         id="path6985" />
      <path
         d="m 261.50364,40.449143 h 8.64 v -4.608 q 0,-2.048 0.128,-4.8 0.192,-2.752 0.256,-4.8 h -0.256 q -1.024,1.792 -2.24,3.648 -1.216,1.792 -2.304,3.648 z m 8.64,17.408 v -9.088 h -19.008 v -7.68 l 15.68,-23.808 h 13.568 v 23.168 h 4.672 v 8.32 h -4.672 v 9.088 z"
         style="fill:#fb5510"
         id="path6987" />
      <path
         d="m 34.688224,138.62514 q -6.08,0 -9.728,-4.48 -3.648,-4.544 -3.648,-12.288 0,-5.248 1.92,-8.96 1.984,-3.776 5.056,-5.76 3.072,-2.048 6.4,-2.048 2.56,0 4.288,0.832 1.792,0.832 3.2,2.368 h 0.256 l -0.512,-4.608 V 93.313143 h 11.008 v 44.543997 h -8.96 l -0.768,-2.944 h -0.256 q -1.664,1.6 -3.904,2.688 -2.176,1.024 -4.352,1.024 z m 2.88,-8.96 q 1.344,0 2.368,-0.448 1.088,-0.512 1.984,-1.856 v -11.776 q -0.96,-0.896 -2.048,-1.216 -1.024,-0.32 -2.176,-0.32 -1.984,0 -3.584,1.728 -1.536,1.728 -1.536,5.952 0,4.288 1.28,6.144 1.344,1.792 3.712,1.792 z"
         style="fill:#fb5510"
         id="path6989" />
      <path
         d="m 63.680126,137.85714 v -32 h 9.024 l 0.832,6.784 h 0.256 q 2.304,-3.968 5.568,-5.76 3.328,-1.792 6.912,-1.792 2.24,0 3.456,0.384 1.28,0.32 2.624,0.896 l -2.176,9.216 q -1.408,-0.448 -2.624,-0.64 -1.216,-0.256 -2.944,-0.256 -2.752,0 -5.44,1.664 -2.688,1.6 -4.48,5.632 v 15.872 z"
         style="fill:#fb5510"
         id="path6991" />
      <path
         d="m 114.62403,138.62514 q -4.224,0 -8,-1.984 -3.776,-1.984 -6.144,-5.696 -2.368002,-3.776 -2.368002,-9.088 0,-5.312 2.368002,-9.024 2.368,-3.776 6.144,-5.76 3.776,-1.984 8,-1.984 4.224,0 8,1.984 3.776,1.984 6.144,5.76 2.368,3.712 2.368,9.024 0,5.312 -2.368,9.088 -2.368,3.712 -6.144,5.696 -3.776,1.984 -8,1.984 z m 0,-8.832 q 2.816,0 4.032,-2.112 1.216,-2.176 1.216,-5.824 0,-3.648 -1.216,-5.76 -1.216,-2.176 -4.032,-2.176 -2.752,0 -4.032,2.176 -1.216,2.112 -1.216,5.76 0,3.648 1.216,5.824 1.28,2.112 4.032,2.112 z"
         style="fill:#fb5510"
         id="path6993" />
      <path
         d="m 137.91993,149.12114 v -43.264 h 8.96 l 0.768,2.944 h 0.256 q 1.856,-1.664 4.16,-2.688 2.368,-1.024 4.8,-1.024 3.904,0 6.72,2.048 2.816,1.984 4.352,5.632 1.6,3.648 1.6,8.576 0,5.504 -1.984,9.408 -1.92,3.84 -5.056,5.888 -3.072,1.984 -6.592,1.984 -2.048,0 -3.904,-0.832 -1.792,-0.832 -3.328,-2.368 h -0.256 l 0.512,4.864 v 8.832 z m 15.36,-19.456 q 2.048,0 3.52,-1.792 1.472,-1.792 1.472,-6.4 0,-3.968 -1.216,-5.696 -1.152,-1.728 -3.52,-1.728 -1.28,0 -2.368,0.512 -1.088,0.512 -2.24,1.792 v 11.776 q 1.024,0.832 2.112,1.216 1.152,0.32 2.24,0.32 z"
         style="fill:#fb5510"
         id="path6995" />
      <path
         d="m 229.82374,138.62514 q -4.736,0 -8.384,-2.432 -3.584,-2.432 -5.632,-7.168 -1.984,-4.736 -1.984,-11.648 0,-10.432 4.416,-15.616 4.416,-5.247997 11.584,-5.247997 7.168,0 11.584,5.247997 4.416,5.184 4.416,15.616 0,6.912 -2.048,11.648 -1.984,4.736 -5.568,7.168 -3.584,2.432 -8.384,2.432 z m 0,-8.448 q 1.728,0 3.136,-1.088 1.408,-1.088 2.24,-3.84 0.896,-2.816 0.896,-7.872 0,-5.056 -0.896,-7.744 -0.832,-2.688 -2.24,-3.648 -1.408,-1.024 -3.136,-1.024 -1.664,0 -3.136,1.024 -1.408,0.96 -2.304,3.648 -0.832,2.688 -0.832,7.744 0,5.056 0.832,7.872 0.896,2.752 2.304,3.84 1.472,1.088 3.136,1.088 z m 0,-7.68 q -2.176,0 -3.648,-1.408 -1.472,-1.408 -1.472,-3.712 0,-2.304 1.472,-3.712 1.472,-1.408 3.648,-1.408 2.24,0 3.648,1.408 1.472,1.408 1.472,3.712 0,2.304 -1.472,3.712 -1.408,1.408 -3.648,1.408 z"
         style="fill:#fb5510"
         id="path6997" />
      <path
         d="m 267.07164,138.62514 q -5.248,0 -9.024,-1.6 -3.712,-1.664 -6.336,-4.16 l 4.864,-6.912 q 1.984,1.6 4.224,2.752 2.24,1.088 4.608,1.088 3.2,0 5.056,-1.28 1.856,-1.28 1.856,-3.968 0,-2.624 -1.856,-3.904 -1.856,-1.344 -4.544,-1.344 -1.792,0 -3.008,0.384 -1.216,0.384 -3.264,1.536 l -4.736,-3.072 1.024,-20.863997 h 25.6 v 9.215997 h -16.128 l -0.512,5.888 q 1.28,-0.384 2.24,-0.512 1.024,-0.128 2.24,-0.128 3.712,0 6.848,1.344 3.2,1.344 5.12,4.16 1.984,2.752 1.984,7.04 0,4.544 -2.304,7.744 -2.24,3.2 -5.952,4.928 -3.712,1.664 -8,1.664 z"
         style="fill:#fb5510"
         id="path6999" />
      <path
         d="m 37.824224,218.62514 q -4.224,0 -8,-1.984 -3.776,-1.984 -6.144,-5.696 -2.368,-3.776 -2.368,-9.088 0,-5.312 2.368,-9.024 2.368,-3.776 6.144,-5.76 3.776,-1.984 8,-1.984 4.224,0 8,1.984 3.776,1.984 6.144,5.76 2.368,3.712 2.368,9.024 0,5.312 -2.368,9.088 -2.368,3.712 -6.144,5.696 -3.776,1.984 -8,1.984 z m 0,-8.832 q 2.816,0 4.032,-2.112 1.216,-2.176 1.216,-5.824 0,-3.648 -1.216,-5.76 -1.216,-2.176 -4.032,-2.176 -2.752,0 -4.032,2.176 -1.216,2.112 -1.216,5.76 0,3.648 1.216,5.824 1.28,2.112 4.032,2.112 z"
         style="fill:#fb5510"
         id="path7001" />
      <path
         d="m 61.120126,217.85714 v -44.544 h 11.008 v 23.936 h 0.256 l 9.728,-11.392 h 11.904 l -11.904,13.184 12.672,18.816 h -11.904 l -7.04,-11.904 -3.712,4.096 v 7.808 z"
         style="fill:#fb5510"
         id="path7003" />
      <path
         d="m 229.82374,218.62514 q -4.736,0 -8.384,-2.432 -3.584,-2.432 -5.632,-7.168 -1.984,-4.736 -1.984,-11.648 0,-10.432 4.416,-15.616 4.416,-5.248 11.584,-5.248 7.168,0 11.584,5.248 4.416,5.184 4.416,15.616 0,6.912 -2.048,11.648 -1.984,4.736 -5.568,7.168 -3.584,2.432 -8.384,2.432 z m 0,-8.448 q 1.728,0 3.136,-1.088 1.408,-1.088 2.24,-3.84 0.896,-2.816 0.896,-7.872 0,-5.056 -0.896,-7.744 -0.832,-2.688 -2.24,-3.648 -1.408,-1.024 -3.136,-1.024 -1.664,0 -3.136,1.024 -1.408,0.96 -2.304,3.648 -0.832,2.688 -0.832,7.744 0,5.056 0.832,7.872 0.896,2.752 2.304,3.84 1.472,1.088 3.136,1.088 z m 0,-7.68 q -2.176,0 -3.648,-1.408 -1.472,-1.408 -1.472,-3.712 0,-2.304 1.472,-3.712 1.472,-1.408 3.648,-1.408 2.24,0 3.648,1.408 1.472,1.408 1.472,3.712 0,2.304 -1.472,3.712 -1.408,1.408 -3.648,1.408 z"
         style="fill:#fb5510"
         id="path7005" />
      <path
         d="m 269.24764,199.93714 q -1.6,0 -3.2,0.832 -1.6,0.768 -3.2,2.624 0.576,2.88 1.6,4.416 1.024,1.472 2.24,2.048 1.216,0.576 2.304,0.576 1.984,0 3.584,-1.216 1.664,-1.216 1.664,-4.416 0,-2.688 -1.472,-3.776 -1.408,-1.088 -3.52,-1.088 z m 0,18.688 q -3.072,0 -6.08,-1.088 -2.944,-1.152 -5.376,-3.584 -2.432,-2.432 -3.904,-6.272 -1.408,-3.904 -1.408,-9.408 0,-5.504 1.472,-9.6 1.472,-4.096 3.968,-6.784 2.496,-2.688 5.632,-4.032 3.2,-1.344 6.592,-1.344 4.544,0 8,1.536 3.456,1.536 5.568,3.584 l -5.76,6.528 q -1.152,-1.088 -3.008,-1.92 -1.856,-0.896 -3.776,-0.896 -2.176,0 -4.096,1.088 -1.856,1.024 -3.072,3.456 -1.216,2.368 -1.472,6.528 2.048,-2.048 4.608,-3.072 2.56,-1.088 4.544,-1.088 3.456,0 6.272,1.344 2.88,1.28 4.544,4.096 1.728,2.752 1.728,7.104 0,4.352 -2.112,7.488 -2.048,3.072 -5.44,4.736 -3.392,1.6 -7.424,1.6 z"
         style="fill:#fb5510"
         id="path7007" />
      <path
         d="m 43.648224,298.62514 q -6.4,0 -9.664,-3.84 -3.2,-3.904 -3.2,-10.112 v -22.784 h -9.6 v -8.576 h 20.608 v 31.744 q 0,2.752 1.536,3.776 1.6,0.96 3.264,0.96 1.984,0 4.608,-0.896 l 2.368,8.064 q -2.56,0.768 -4.672,1.216 -2.112,0.448 -5.248,0.448 z"
         style="fill:#fb5510"
         id="path7009" />
      <path
         d="m 76.224126,298.62514 q -4.224,0 -8,-1.984 -3.776,-1.984 -6.144,-5.696 -2.368,-3.776 -2.368,-9.088 0,-5.312 2.368,-9.024 2.368,-3.776 6.144,-5.76 3.776,-1.984 8,-1.984 4.224,0 8,1.984 3.776,1.984 6.144,5.76 2.368,3.712 2.368,9.024 0,5.312 -2.368,9.088 -2.368,3.712 -6.144,5.696 -3.776,1.984 -8,1.984 z m 0,-8.832 q 2.816,0 4.032,-2.112 1.216,-2.176 1.216,-5.824 0,-3.648 -1.216,-5.76 -1.216,-2.176 -4.032,-2.176 -2.752,0 -4.032,2.176 -1.216,2.112 -1.216,5.76 0,3.648 1.216,5.824 1.28,2.112 4.032,2.112 z"
         style="fill:#fb5510"
         id="path7011" />
      <path
         d="m 102.08003,297.85714 v -32 h 9.024 l 0.832,6.784 h 0.256 q 2.304,-3.968 5.568,-5.76 3.328,-1.792 6.912,-1.792 2.24,0 3.456,0.384 1.28,0.32 2.624,0.896 l -2.176,9.216 q -1.408,-0.448 -2.624,-0.64 -1.216,-0.256 -2.944,-0.256 -2.752,0 -5.44,1.664 -2.688,1.6 -4.48,5.632 v 15.872 z"
         style="fill:#fb5510"
         id="path7013" />
      <path
         d="m 147.64793,298.62514 q -3.328,0 -5.632,-1.344 -2.304,-1.408 -3.52,-3.648 -1.216,-2.24 -1.216,-4.864 0,-5.376 4.608,-8.192 4.672,-2.88 15.616,-3.456 -0.256,-1.728 -1.856,-2.496 -1.6,-0.832 -4.288,-0.832 -1.984,0 -4.16,0.704 -2.176,0.64 -5.056,1.984 l -3.84,-7.168 q 3.648,-2.048 7.424,-3.136 3.776,-1.088 7.808,-1.088 6.848,0 10.88,3.584 4.096,3.52 4.096,11.392 v 17.792 h -8.96 l -0.768,-3.328 h -0.256 q -2.368,1.728 -5.12,2.944 -2.752,1.152 -5.76,1.152 z m 3.584,-8.448 q 1.92,0 3.456,-0.704 1.536,-0.768 2.816,-1.728 v -4.096 q -3.904,0.128 -6.016,0.704 -2.112,0.576 -2.944,1.536 -0.768,0.896 -0.768,1.984 0,2.304 3.456,2.304 z"
         style="fill:#fb5510"
         id="path7015" />
      <path
         d="m 229.82374,298.62514 q -4.736,0 -8.384,-2.432 -3.584,-2.432 -5.632,-7.168 -1.984,-4.736 -1.984,-11.648 0,-10.432 4.416,-15.616 4.416,-5.248 11.584,-5.248 7.168,0 11.584,5.248 4.416,5.184 4.416,15.616 0,6.912 -2.048,11.648 -1.984,4.736 -5.568,7.168 -3.584,2.432 -8.384,2.432 z m 0,-8.448 q 1.728,0 3.136,-1.088 1.408,-1.088 2.24,-3.84 0.896,-2.816 0.896,-7.872 0,-5.056 -0.896,-7.744 -0.832,-2.688 -2.24,-3.648 -1.408,-1.024 -3.136,-1.024 -1.664,0 -3.136,1.024 -1.408,0.96 -2.304,3.648 -0.832,2.688 -0.832,7.744 0,5.056 0.832,7.872 0.896,2.752 2.304,3.84 1.472,1.088 3.136,1.088 z m 0,-7.68 q -2.176,0 -3.648,-1.408 -1.472,-1.408 -1.472,-3.712 0,-2.304 1.472,-3.712 1.472,-1.408 3.648,-1.408 2.24,0 3.648,1.408 1.472,1.408 1.472,3.712 0,2.304 -1.472,3.712 -1.408,1.408 -3.648,1.408 z"
         style="fill:#fb5510"
         id="path7017" />
      <path
         d="m 260.54364,297.85714 q 0.448,-6.4 1.536,-11.52 1.152,-5.12 3.456,-9.856 2.368,-4.8 6.464,-9.984 h -19.2 v -9.216 h 30.912 v 6.784 q -3.776,4.096 -6.08,7.744 -2.24,3.584 -3.456,7.36 -1.216,3.712 -1.792,8.256 -0.512,4.48 -0.832,10.432 z"
         style="fill:#fb5510"
         id="path7019" />
      <path
         d="m 37.824224,378.62514 q -4.224,0 -8,-1.984 -3.776,-1.984 -6.144,-5.696 -2.368,-3.776 -2.368,-9.088 0,-5.312 2.368,-9.024 2.368,-3.776 6.144,-5.76 3.776,-1.984 8,-1.984 4.224,0 8,1.984 3.776,1.984 6.144,5.76 2.368,3.712 2.368,9.024 0,5.312 -2.368,9.088 -2.368,3.712 -6.144,5.696 -3.776,1.984 -8,1.984 z m 0,-8.832 q 2.816,0 4.032,-2.112 1.216,-2.176 1.216,-5.824 0,-3.648 -1.216,-5.76 -1.216,-2.176 -4.032,-2.176 -2.752,0 -4.032,2.176 -1.216,2.112 -1.216,5.76 0,3.648 1.216,5.824 1.28,2.112 4.032,2.112 z"
         style="fill:#fb5510"
         id="path7021" />
      <path
         d="m 61.120126,377.85714 v -44.544 h 11.008 v 23.936 h 0.256 l 9.728,-11.392 h 11.904 l -11.904,13.184 12.672,18.816 h -11.904 l -7.04,-11.904 -3.712,4.096 v 7.808 z"
         style="fill:#fb5510"
         id="path7023" />
      <path
         d="m 229.82374,378.62514 q -4.736,0 -8.384,-2.432 -3.584,-2.432 -5.632,-7.168 -1.984,-4.736 -1.984,-11.648 0,-10.432 4.416,-15.616 4.416,-5.248 11.584,-5.248 7.168,0 11.584,5.248 4.416,5.184 4.416,15.616 0,6.912 -2.048,11.648 -1.984,4.736 -5.568,7.168 -3.584,2.432 -8.384,2.432 z m 0,-8.448 q 1.728,0 3.136,-1.088 1.408,-1.088 2.24,-3.84 0.896,-2.816 0.896,-7.872 0,-5.056 -0.896,-7.744 -0.832,-2.688 -2.24,-3.648 -1.408,-1.024 -3.136,-1.024 -1.664,0 -3.136,1.024 -1.408,0.96 -2.304,3.648 -0.832,2.688 -0.832,7.744 0,5.056 0.832,7.872 0.896,2.752 2.304,3.84 1.472,1.088 3.136,1.088 z m 0,-7.68 q -2.176,0 -3.648,-1.408 -1.472,-1.408 -1.472,-3.712 0,-2.304 1.472,-3.712 1.472,-1.408 3.648,-1.408 2.24,0 3.648,1.408 1.472,1.408 1.472,3.712 0,2.304 -1.472,3.712 -1.408,1.408 -3.648,1.408 z"
         style="fill:#fb5510"
         id="path7025" />
      <path
         d="m 268.09564,378.62514 q -7.104,0 -11.264,-3.072 -4.096,-3.072 -4.096,-8.064 0,-3.584 2.048,-5.824 2.112,-2.24 5.184,-3.776 v -0.256 q -2.56,-1.856 -4.224,-4.16 -1.6,-2.304 -1.6,-5.44 0,-3.584 1.792,-6.144 1.856,-2.624 5.056,-3.968 3.264,-1.408 7.488,-1.408 6.08,0 9.792,3.072 3.776,3.008 3.776,8.192 0,2.752 -1.728,4.928 -1.664,2.176 -3.968,3.584 v 0.256 q 3.2,1.6 5.312,4.16 2.176,2.496 2.176,6.528 0,4.864 -4.096,8.128 -4.032,3.264 -11.648,3.264 z m 2.688,-24.96 q 2.304,-2.496 2.304,-5.12 0,-2.112 -1.28,-3.264 -1.28,-1.216 -3.584,-1.216 -1.792,0 -3.136,0.96 -1.344,0.896 -1.344,3.008 0,1.984 1.92,3.264 1.92,1.216 5.12,2.368 z m -2.432,17.408 q 2.24,0 3.712,-0.96 1.536,-0.96 1.536,-3.264 0,-2.24 -2.368,-3.392 -2.304,-1.216 -6.272,-2.752 -1.216,1.024 -1.984,2.496 -0.768,1.472 -0.768,3.008 0,2.368 1.792,3.648 1.856,1.216 4.352,1.216 z"
         style="fill:#fb5510"
         id="path7027" />
      <path
         d="m 37.824224,458.62514 q -4.224,0 -8,-1.984 -3.776,-1.984 -6.144,-5.696 -2.368,-3.776 -2.368,-9.088 0,-5.312 2.368,-9.024 2.368,-3.776 6.144,-5.76 3.776,-1.984 8,-1.984 4.224,0 8,1.984 3.776,1.984 6.144,5.76 2.368,3.712 2.368,9.024 0,5.312 -2.368,9.088 -2.368,3.712 -6.144,5.696 -3.776,1.984 -8,1.984 z m 0,-8.832 q 2.816,0 4.032,-2.112 1.216,-2.176 1.216,-5.824 0,-3.648 -1.216,-5.76 -1.216,-2.176 -4.032,-2.176 -2.752,0 -4.032,2.176 -1.216,2.112 -1.216,5.76 0,3.648 1.216,5.824 1.28,2.112 4.032,2.112 z"
         style="fill:#fb5510"
         id="path7029" />
      <path
         d="m 61.120126,457.85714 v -44.544 h 11.008 v 23.936 h 0.256 l 9.728,-11.392 h 11.904 l -11.904,13.184 12.672,18.816 h -11.904 l -7.04,-11.904 -3.712,4.096 v 7.808 z"
         style="fill:#fb5510"
         id="path7031" />
      <path
         d="m 229.82374,458.62514 q -4.736,0 -8.384,-2.432 -3.584,-2.432 -5.632,-7.168 -1.984,-4.736 -1.984,-11.648 0,-10.432 4.416,-15.616 4.416,-5.248 11.584,-5.248 7.168,0 11.584,5.248 4.416,5.184 4.416,15.616 0,6.912 -2.048,11.648 -1.984,4.736 -5.568,7.168 -3.584,2.432 -8.384,2.432 z m 0,-8.448 q 1.728,0 3.136,-1.088 1.408,-1.088 2.24,-3.84 0.896,-2.816 0.896,-7.872 0,-5.056 -0.896,-7.744 -0.832,-2.688 -2.24,-3.648 -1.408,-1.024 -3.136,-1.024 -1.664,0 -3.136,1.024 -1.408,0.96 -2.304,3.648 -0.832,2.688 -0.832,7.744 0,5.056 0.832,7.872 0.896,2.752 2.304,3.84 1.472,1.088 3.136,1.088 z m 0,-7.68 q -2.176,0 -3.648,-1.408 -1.472,-1.408 -1.472,-3.712 0,-2.304 1.472,-3.712 1.472,-1.408 3.648,-1.408 2.24,0 3.648,1.408 1.472,1.408 1.472,3.712 0,2.304 -1.472,3.712 -1.408,1.408 -3.648,1.408 z"
         style="fill:#fb5510"
         id="path7033" />
      <path
         d="m 262.07964,430.33714 q 0,2.688 1.408,3.776 1.472,1.088 3.584,1.088 1.6,0 3.2,-0.768 1.6,-0.832 3.2,-2.688 -0.512,-2.88 -1.6,-4.416 -1.024,-1.536 -2.24,-2.048 -1.216,-0.576 -2.304,-0.576 -1.984,0 -3.648,1.216 -1.6,1.216 -1.6,4.416 z m 4.096,28.288 q -4.544,0 -8,-1.536 -3.456,-1.6 -5.568,-3.584 l 5.76,-6.528 q 1.152,1.024 3.008,1.92 1.856,0.896 3.776,0.896 2.176,0 4.032,-1.024 1.92,-1.088 3.136,-3.52 1.28,-2.432 1.472,-6.528 -2.048,1.984 -4.608,3.072 -2.56,1.088 -4.544,1.088 -3.456,0 -6.336,-1.28 -2.816,-1.344 -4.544,-4.096 -1.664,-2.816 -1.664,-7.168 0,-4.352 2.048,-7.424 2.112,-3.136 5.504,-4.736 3.456,-1.664 7.424,-1.664 3.072,0 6.016,1.152 3.008,1.088 5.44,3.52 2.432,2.432 3.84,6.336 1.472,3.84 1.472,9.344 0,5.504 -1.472,9.6 -1.472,4.096 -3.968,6.784 -2.496,2.688 -5.696,4.032 -3.136,1.344 -6.528,1.344 z"
         style="fill:#fb5510"
         id="path7035" />
    </g>
    <circle
       style="fill:none;fill-opacity:1;stroke:#1ff946;stroke-width:8.23644;stroke-miterlimit:4;stroke-dasharray:none;stroke-opacity:1"
       id="path44472"
       cx="398.29681"
       cy="386.39926"
       r="105.85228" />
    <circle
       style="fill:none;fill-opacity:1;stroke:#1ff946;stroke-width:6.59627;stroke-miterlimit:4;stroke-dasharray:none;stroke-opacity:1"
       id="path44472-3"
       cx="403.7562"
       cy="380.79657"
       r="84.7733" />
    <circle
       style="fill:none;fill-opacity:1;stroke:#1ff946;stroke-width:5.16846;stroke-miterlimit:4;stroke-dasharray:none;stroke-opacity:1"
       id="path44472-3-6"
       cx="405.30591"
       cy="375.56677"
       r="66.423538" />
    <circle
       style="fill:none;fill-opacity:1;stroke:#1ff946;stroke-width:9.68321;stroke-miterlimit:4;stroke-dasharray:none;stroke-opacity:1"
       id="path44472-3-7"
       cx="396.573"
       cy="389.07919"
       r="124.44567" />
    <circle
       style="fill:none;fill-opacity:1;stroke:#1ff946;stroke-width:11.3281;stroke-miterlimit:4;stroke-dasharray:none;stroke-opacity:1"
       id="path44472-3-5"
       cx="394.67856"
       cy="390.35248"
       r="145.58594" />
  </g>
</svg>
